<svg xmlns="http://www.w3.org/2000/svg" viewBox="0 0 200 200" width="200" height="200">
  <defs>
    <linearGradient id="desertGrad" x1="0%" y1="0%" x2="0%" y2="100%">
      <stop offset="0%" style="stop-color:#FFF59D;stop-opacity:1" /> <stop offset="100%" style="stop-color:#FBC02D;stop-opacity:1" /> </linearGradient>
  </defs>

  <circle cx="100" cy="100" r="95" fill="url(#desertGrad)" stroke="#FB8C00" stroke-width="4"/>

  <circle cx="160" cy="60" r="20" fill="#FB8C00"/>

  <path d="M 5,140 Q 50,110 100,130 Q 150,150 195,120 L 195,180 Q 100,205 5,180 Z" fill="#43A047"/>

  <path d="M 70,155 L 75,130 Q 70,115 60,115 Q 50,115 45,125 L 40,140 L 35,135 Q 30,100 55,95 Q 65,92 75,105 Q 85,85 105,85 Q 125,85 130,110 Q 145,105 155,115 L 165,135 L 160,155 H 145 L 150,135 L 140,125 L 135,155 H 120 L 125,135 Q 120,120 110,120 Q 100,120 100,135 L 105,155 H 85 L 85,135 L 75,135 L 75,155 Z" fill="#F57F17"/>
</svg>